<?xml version="1.0" standalone="no"?><!DOCTYPE svg PUBLIC "-//W3C//DTD SVG 1.1//EN" "http://www.w3.org/Graphics/SVG/1.1/DTD/svg11.dtd"><svg t="1786535423966" class="icon" viewBox="0 0 1024 1024" version="1.1" xmlns="http://www.w3.org/2000/svg" p-id="5919" xmlns:xlink="http://www.w3.org/1999/xlink" width="200" height="200"><path d="M444.928 474.112c0 35.328 28.672 63.488 64 63.488s63.488-28.672 63.488-63.488c0-35.328-28.672-63.488-63.488-63.488-35.328 0-64 28.16-64 63.488" fill="#2c2c2c" p-id="5920"></path><path d="M508.416 834.56c-46.08 0-92.16-6.144-136.192-18.944l-97.28 61.44v-101.888c-115.2-64.512-191.488-175.104-191.488-301.056 0-199.168 190.464-360.448 424.96-360.448s424.96 161.28 424.96 360.448c0 41.984-8.704 82.432-24.064 120.32 18.944 11.776 35.84 26.624 50.176 43.52 24.576-51.2 37.376-107.008 37.376-163.328 0-234.496-218.624-423.936-488.96-423.936C238.592 49.664 19.968 239.616 19.968 474.112c0 137.216 74.752 259.072 191.488 336.384v148.48c0 23.552 15.36 30.72 33.792 16.896l125.44-94.72c77.312 19.456 158.208 22.528 236.544 8.704-11.264-18.944-19.456-39.424-24.576-60.416-24.576 3.072-49.152 5.12-74.24 5.12" fill="#2c2c2c" p-id="5921"></path><path d="M699.904 474.112c0 35.328 28.672 63.488 64 63.488s63.488-28.672 63.488-63.488c0-35.328-28.672-63.488-63.488-63.488-35.328 0-64 28.16-64 63.488m-509.952 0c0 35.328 28.672 63.488 64 63.488S317.44 508.928 317.44 474.112c0-35.328-28.672-63.488-63.488-63.488-35.84 0-64 28.16-64 63.488m623.104 158.208c-93.184 0-168.448 75.776-168.96 168.96 0 93.184 75.776 168.96 168.96 168.96s168.96-75.776 168.96-168.96c0-93.696-75.776-168.96-168.96-168.96z m0 291.84c-68.096 0-122.88-55.296-122.88-122.88 0-27.648 9.216-53.248 24.576-73.728l172.032 172.032c-20.992 15.872-47.104 24.576-73.728 24.576z m110.592-69.12l-164.864-164.864c47.104-23.04 103.936-13.312 140.8 23.552 37.376 37.376 47.104 94.208 24.064 141.312z m0 0" fill="#2c2c2c" p-id="5922"></path></svg>